<svg width="8" height="12" viewBox="0 0 8 12" fill="none" xmlns="http://www.w3.org/2000/svg">
<path d="M2.25978 3.83333C2.25978 4.46667 2.74645 4.87333 4.25978 5.26667C5.77311 5.66 7.39311 6.30667 7.39311 8.2C7.39311 9.56667 6.35978 10.32 5.05978 10.5667V12H3.05978V10.5533C1.77978 10.28 0.686445 9.46 0.606445 8H2.07311C2.14645 8.78667 2.68645 9.4 4.05978 9.4C5.53311 9.4 5.85978 8.66667 5.85978 8.20667C5.85978 7.58667 5.52645 7 3.85978 6.6C1.99978 6.15333 0.726445 5.38667 0.726445 3.84667C0.726445 2.56 1.76645 1.72 3.05978 1.44V0H5.05978V1.46C6.45311 1.8 7.15311 2.85333 7.19978 4H5.72645C5.68645 3.16667 5.24645 2.6 4.05978 2.6C2.93311 2.6 2.25978 3.10667 2.25978 3.83333Z" fill="white"/>
</svg>
