<svg width="14" height="14" viewBox="0 0 14 14" fill="none" xmlns="http://www.w3.org/2000/svg">
<path d="M1.66634 3.00016H0.333008V12.3335C0.333008 13.0668 0.933008 13.6668 1.66634 13.6668H10.9997V12.3335H1.66634V3.00016ZM12.333 0.333496H4.33301C3.59967 0.333496 2.99967 0.933496 2.99967 1.66683V9.66683C2.99967 10.4002 3.59967 11.0002 4.33301 11.0002H12.333C13.0663 11.0002 13.6663 10.4002 13.6663 9.66683V1.66683C13.6663 0.933496 13.0663 0.333496 12.333 0.333496ZM12.333 9.66683H4.33301V1.66683H12.333V9.66683ZM8.00634 5.7735C8.27968 5.28683 8.79301 5.00016 9.09301 4.5735C9.41301 4.12016 9.23301 3.28016 8.33301 3.28016C7.74634 3.28016 7.45301 3.72683 7.33301 4.10016L6.41967 3.72016C6.67301 2.9735 7.34634 2.3335 8.32634 2.3335C9.14634 2.3335 9.71301 2.70683 9.99967 3.1735C10.2463 3.5735 10.3863 4.32683 10.0063 4.88683C9.58634 5.50683 9.18634 5.6935 8.96634 6.0935C8.87967 6.2535 8.84634 6.36016 8.84634 6.88016H7.83301C7.83967 6.60683 7.79301 6.16016 8.00634 5.7735ZM7.63301 8.30016C7.63301 7.90683 7.94634 7.60683 8.33301 7.60683C8.72634 7.60683 9.02634 7.90683 9.02634 8.30016C9.02634 8.68683 8.73301 9.00016 8.33301 9.00016C7.94634 9.00016 7.63301 8.68683 7.63301 8.30016Z" fill="white"/>
</svg>
